<?xml version="1.0" encoding="UTF-8" standalone="no"?>
<!-- Created with Inkscape (http://www.inkscape.org/) -->

<svg
   xmlns:dc="http://purl.org/dc/elements/1.1/"
   xmlns:cc="http://creativecommons.org/ns#"
   xmlns:rdf="http://www.w3.org/1999/02/22-rdf-syntax-ns#"
   xmlns:svg="http://www.w3.org/2000/svg"
   xmlns="http://www.w3.org/2000/svg"
   xmlns:sodipodi="http://sodipodi.sourceforge.net/DTD/sodipodi-0.dtd"
   xmlns:inkscape="http://www.inkscape.org/namespaces/inkscape"
   version="1.1"
   id="svg2"
   xml:space="preserve"
   width="1600"
   height="1600"
   viewBox="0 0 1600 1600"
   sodipodi:docname="vector60-5829-01.svg"
   inkscape:version="0.92.5 (2060ec1f9f, 2020-04-08)"><metadata
     id="metadata8"><rdf:RDF><cc:Work
         rdf:about=""><dc:format>image/svg+xml</dc:format><dc:type
           rdf:resource="http://purl.org/dc/dcmitype/StillImage" /><dc:title /></cc:Work></rdf:RDF></metadata><defs
     id="defs6" /><sodipodi:namedview
     pagecolor="#ffffff"
     bordercolor="#666666"
     borderopacity="1"
     objecttolerance="10"
     gridtolerance="10"
     guidetolerance="10"
     inkscape:pageopacity="0"
     inkscape:pageshadow="2"
     inkscape:window-width="1318"
     inkscape:window-height="741"
     id="namedview4"
     showgrid="false"
     inkscape:zoom="0.1475"
     inkscape:cx="1020.6241"
     inkscape:cy="800"
     inkscape:window-x="48"
     inkscape:window-y="27"
     inkscape:window-maximized="1"
     inkscape:current-layer="g10" /><g
     id="g10"
     inkscape:groupmode="layer"
     inkscape:label="ink_ext_XXXXXX"
     transform="matrix(1.3333333,0,0,-1.3333333,0,1600)"><g
       id="g12"
       transform="matrix(0.1,0,0,0.1,15.254238,0)"><path
         d="M 6080.25,10260 C 4226.49,10260 2651.66,9036.54 2110.93,7350.18 h 1029.52 c 494.53,1140.54 1626.04,1939.88 2939.8,1939.88 1767.6,0 3205.65,-1446.76 3205.65,-3225.06 0,-1778.31 -1438.05,-3225.06 -3205.65,-3225.06 -1247.59,0 -2330.89,720.8 -2860.37,1770.15 H 2169.25 C 2758.51,3011.96 4289.26,1870 6080.25,1870 8379.46,1870 10250,3751.87 10250,6065 c 0,2313.13 -1870.54,4195 -4169.75,4195"
         style="fill:#211d1d;fill-opacity:1;fill-rule:nonzero;stroke:none"
         id="path14"
         inkscape:connector-curvature="0" /><path
         d="M 4980.01,4052.37 7478.2,5975.11 4980.01,7859.39 V 6782.66 H 1790 V 5244.47 h 3190.01 v -1192.1"
         style="fill:#211d1d;fill-opacity:1;fill-rule:nonzero;stroke:none"
         id="path16"
         inkscape:connector-curvature="0" /></g><path
       sodipodi:type="star"
       style="fill:#000080;fill-opacity:1;stroke-width:0.75"
       id="path831"
       sodipodi:sides="4"
       sodipodi:cx="615.25425"
       sodipodi:cy="-605.08466"
       sodipodi:r1="699.33282"
       sodipodi:r2="494.50296"
       sodipodi:arg1="0.78539816"
       sodipodi:arg2="1.5707963"
       inkscape:flatsided="true"
       inkscape:rounded="0.15"
       inkscape:randomized="0"
       d="m 1109.7573,-110.58167 c -104.9,104.8999193 -884.10608,104.8999219 -989.00601,0 -104.899923,-104.89992 -104.899925,-884.10604 0,-989.00593 104.89992,-104.9 884.10601,-104.9 989.00601,0 104.8999,104.89988 104.8999,884.106 0,989.00593 z"
       transform="scale(1,-1)"
       inkscape:transform-center-y="4.0112994e-05" /></g><g
     transform="matrix(1.3333333,0,0,-1.3333333,0,1600)"
     inkscape:label="Copie de ink_ext_XXXXXX"
     inkscape:groupmode="layer"
     id="g821"><g
       transform="matrix(0.1,0,0,0.1,15.254238,0)"
       id="g819"
       style="fill:#ffffff"><path
         inkscape:connector-curvature="0"
         id="path815"
         style="fill:#ffffff;fill-opacity:1;fill-rule:nonzero;stroke:none"
         d="M 6080.25,10260 C 4226.49,10260 2651.66,9036.54 2110.93,7350.18 h 1029.52 c 494.53,1140.54 1626.04,1939.88 2939.8,1939.88 1767.6,0 3205.65,-1446.76 3205.65,-3225.06 0,-1778.31 -1438.05,-3225.06 -3205.65,-3225.06 -1247.59,0 -2330.89,720.8 -2860.37,1770.15 H 2169.25 C 2758.51,3011.96 4289.26,1870 6080.25,1870 8379.46,1870 10250,3751.87 10250,6065 c 0,2313.13 -1870.54,4195 -4169.75,4195" /><path
         inkscape:connector-curvature="0"
         id="path817"
         style="fill:#ffffff;fill-opacity:1;fill-rule:nonzero;stroke:none"
         d="M 4980.01,4052.37 7478.2,5975.11 4980.01,7859.39 V 6782.66 H 1790 V 5244.47 h 3190.01 v -1192.1" /></g></g></svg>