<?xml version="1.0" encoding="UTF-8" standalone="no"?>
<svg
   version="1.1"
   id="Layer_1"
   x="0px"
   y="0px"
   viewBox="0 0 122.88 97.05"
   style="enable-background:new 0 0 122.88 97.05"
   xml:space="preserve"
   sodipodi:docname="module_image.svg"
   inkscape:version="1.1.2 (0a00cf5339, 2022-02-04)"
   inkscape:export-filename="/home/marc/www/hhdev/protected/modules/auth-keycloak/resources/module_image.png"
   inkscape:export-xdpi="347.45001"
   inkscape:export-ydpi="347.45001"
   xmlns:inkscape="http://www.inkscape.org/namespaces/inkscape"
   xmlns:sodipodi="http://sodipodi.sourceforge.net/DTD/sodipodi-0.dtd"
   xmlns:xlink="http://www.w3.org/1999/xlink"
   xmlns="http://www.w3.org/2000/svg"
   xmlns:svg="http://www.w3.org/2000/svg"><defs
     id="defs9"><linearGradient
       inkscape:collect="always"
       id="linearGradient1095"><stop
         style="stop-color:#ce2c8d;stop-opacity:1;"
         offset="0"
         id="stop1091" /><stop
         style="stop-color:#ffffff;stop-opacity:1"
         offset="1"
         id="stop1093" /></linearGradient><linearGradient
       inkscape:collect="always"
       xlink:href="#linearGradient1095"
       id="linearGradient1097"
       x1="65.836899"
       y1="43.841801"
       x2="-4.2705827"
       y2="-88.977081"
       gradientUnits="userSpaceOnUse" /></defs><sodipodi:namedview
     id="namedview7"
     pagecolor="#ffffff"
     bordercolor="#666666"
     borderopacity="1.0"
     inkscape:pageshadow="2"
     inkscape:pageopacity="0.0"
     inkscape:pagecheckerboard="0"
     showgrid="false"
     inkscape:zoom="1.9380773"
     inkscape:cx="76.880319"
     inkscape:cy="87.973787"
     inkscape:window-width="1320"
     inkscape:window-height="704"
     inkscape:window-x="46"
     inkscape:window-y="27"
     inkscape:window-maximized="1"
     inkscape:current-layer="layer1" /><g
     inkscape:groupmode="layer"
     id="layer2"
     inkscape:label="Layer 2"><path
       sodipodi:type="star"
       style="fill:url(#linearGradient1097);fill-opacity:1;stroke:#3bb0f4;stroke-width:0;stroke-miterlimit:4;stroke-dasharray:none"
       id="path859"
       inkscape:flatsided="true"
       sodipodi:sides="4"
       sodipodi:cx="63.406307"
       sodipodi:cy="46.851624"
       sodipodi:r1="86.300095"
       sodipodi:r2="61.02338"
       sodipodi:arg1="0.78539816"
       sodipodi:arg2="1.5707963"
       inkscape:rounded="0.15"
       inkscape:randomized="0"
       d="m 124.42969,107.87501 c -12.94501,12.94501 -109.10175,12.94501 -122.0467647,0 -12.9450143,-12.945018 -12.9450143,-109.1017541 -4e-7,-122.046768 12.9450141,-12.945015 109.1017451,-12.945015 122.0467651,-10e-7 12.94501,12.9450144 12.94501,109.10175 0,122.046769 z"
       inkscape:export-filename="/home/marc/www/hhdev/protected/modules/module-model/resources/module_image.png"
       inkscape:export-xdpi="347.45001"
       inkscape:export-ydpi="347.45001" /></g><g
     inkscape:groupmode="layer"
     id="layer1"
     inkscape:label="Layer 1"><path
       d="M 113.77541,25.60847 H 98.574369 c -0.2829,0 -0.5658,-0.15088 -0.69782,-0.39606 L 85.674229,4.0516596 c -0.15088,-0.24518 -0.41492,-0.39606 -0.71668,-0.39606 h -49.79 c -0.2829,0 -0.5658,0.15088 -0.69781,0.39606 L 21.777059,26.00453 9.5558687,47.16528 c -0.13202,0.24518 -0.13202,0.54694 0,0.81097 l 12.2211903,21.160765 12.67382,21.97172 c 0.13201,0.24518 0.41491,0.41492 0.69781,0.39606 h 49.80886 c 0.2829,0 0.5658,-0.15088 0.71668,-0.39606 l 12.22118,-21.16075 c 0.13202,-0.24518 0.41492,-0.41492 0.69782,-0.39606 h 15.201041 c 0.50921,0 0.90527,-0.41492 0.90527,-0.90527 V 26.5326 c -0.0188,-0.50921 -0.43378,-0.92413 -0.92413,-0.92413 z m -58.220361,44.339515 -3.82855,6.60095 c -0.0566,0.0943 -0.15088,0.1886 -0.24518,0.24517 -0.11316,0.0566 -0.22632,0.0943 -0.35834,0.0943 h -7.60052 c -0.26403,0 -0.50921,-0.13202 -0.62237,-0.37719 l -11.33477,-19.670835 -1.11273,-1.94256 -4.07373,-6.95929 c -0.0566,-0.0943 -0.0943,-0.20745 -0.0754,-0.33947 0,-0.11316 0.0377,-0.24518 0.0943,-0.33948 l 4.09259,-7.0913 12.42864,-21.50023 c 0.13202,-0.22632 0.3772,-0.3772 0.62237,-0.3772 h 7.58166 c 0.13202,0 0.26404,0.0377 0.39606,0.0943 0.0943,0.0566 0.1886,0.13202 0.24518,0.24518 l 3.82855,6.63866 c 0.11316,0.22632 0.0943,0.50922 -0.0377,0.71668 l -12.27776,21.27391 c -0.0566,0.0943 -0.0754,0.20746 -0.0754,0.30176 0,0.11316 0.0377,0.20746 0.0754,0.30175 l 12.27776,21.255065 c 0.16974,0.2829 0.15088,0.58465 0,0.82983 z m 38.11576,-22.009455 -4.07373,6.95929 -1.11273,1.94256 -11.33477,19.670835 c -0.13202,0.22632 -0.35834,0.37719 -0.62238,0.37719 h -7.60052 c -0.13202,0 -0.24517,-0.0377 -0.35833,-0.0943 -0.0943,-0.0566 -0.1886,-0.13201 -0.24518,-0.24517 l -3.82855,-6.60095 c -0.16974,-0.24518 -0.16974,-0.54693 -0.0189,-0.79211 L 76.753489,47.90081 c 0.0566,-0.0943 0.0754,-0.20745 0.0754,-0.30175 0,-0.11316 -0.0377,-0.20746 -0.0754,-0.30176 L 64.475719,26.02339 c -0.13202,-0.22632 -0.15087,-0.49036 -0.0377,-0.71668 l 3.82855,-6.63866 c 0.0566,-0.0943 0.15088,-0.1886 0.24518,-0.24518 0.11316,-0.0754 0.24518,-0.0943 0.39606,-0.0943 h 7.61938 c 0.26404,0 0.50921,0.13202 0.62237,0.3772 l 12.42864,21.50023 4.09259,7.0913 c 0.0566,0.11316 0.0943,0.22632 0.0943,0.33948 0,0.0754 -0.0377,0.1886 -0.0943,0.30175 z"
       style="fill:#ffffff;stroke-width:0.188598"
       id="path4" /></g></svg>
